<svg width="28" height="28" viewBox="0 0 28 28" fill="none" xmlns="http://www.w3.org/2000/svg">
<g clip-path="url(#clip0_4_10403)">
<path fill-rule="evenodd" clip-rule="evenodd" d="M14.8249 18.3248C14.6061 18.5435 14.3094 18.6664 14.0001 18.6664C13.6907 18.6664 13.394 18.5435 13.1752 18.3248L6.57541 11.725C6.46398 11.6173 6.3751 11.4886 6.31396 11.3463C6.25281 11.2039 6.22063 11.0508 6.21928 10.8959C6.21794 10.741 6.24746 10.5874 6.30612 10.444C6.36478 10.3006 6.45141 10.1704 6.56095 10.0608C6.67049 9.95128 6.80075 9.86465 6.94413 9.80599C7.08751 9.74733 7.24113 9.71781 7.39604 9.71916C7.55095 9.72051 7.70404 9.75269 7.84638 9.81383C7.98872 9.87498 8.11745 9.96386 8.22507 10.0753L14.0001 15.8503L19.7751 10.0753C19.9951 9.86277 20.2898 9.74517 20.5957 9.74783C20.9016 9.75049 21.1942 9.87319 21.4105 10.0895C21.6268 10.3058 21.7495 10.5984 21.7522 10.9043C21.7549 11.2102 21.6373 11.5049 21.4247 11.725L14.8249 18.3248Z" fill="#0B0B0B"/>
</g>
<defs>
<clipPath id="clip0_4_10403">
<rect width="28" height="28" fill="white"/>
</clipPath>
</defs>
</svg>
